<?xml version="1.0" encoding="UTF-8"?>
<!DOCTYPE svg PUBLIC "-//W3C//DTD SVG 1.1//EN" "http://www.w3.org/Graphics/SVG/1.1/DTD/svg11.dtd">
<!-- Creator: CorelDRAW -->
<svg xmlns="http://www.w3.org/2000/svg" xml:space="preserve" width="0.40in" height="0.40in" style="shape-rendering:geometricPrecision; text-rendering:geometricPrecision; image-rendering:optimizeQuality; fill-rule:evenodd; clip-rule:evenodd"
viewBox="0 0 6.82666 6.82666"
 xmlns:xlink="http://www.w3.org/1999/xlink">
 <defs>
  <style type="text/css">
   <![CDATA[
    .fil1 {fill:none}
    .fil0 {fill:none}
    .fil2 {fill:#424242;fill-rule:nonzero}
   ]]>
  </style>
 </defs>
 <rect class="fil0" width="6.82666" height="6.82666"/>
 <g id="Layer_x0020_1">
  <metadata id="CorelCorpID_0Corel-Layer"/>
  <g id="_259908032">
   <rect id="_259908104" class="fil1" width="6.82666" height="6.82666"/>
   <rect id="_259908176" class="fil1" x="0.853331" y="0.853331" width="5.12" height="5.12"/>
  </g>
  <path class="fil2" d="M3.41335 1.06667c-0.418028,0 -0.797114,0.170063 -1.0717,0.444642 -0.274591,0.274583 -0.444661,0.653657 -0.444661,1.07167 0,0.167169 0.0550591,0.391339 0.166752,0.676524 0.115213,0.294161 0.289047,0.648898 0.523122,1.06834 0.3305,0.592228 0.654031,1.08451 0.673429,1.11402l0.000192913 -0.000125984 0.000318898 0.000480315 0 0.000417323 0.152531 0.231173 0.152492 -0.231173 0 -0.000417323c0.00897638,-0.0136024 0.152854,-0.23213 0.347862,-0.554638 0.101913,-0.168547 0.215272,-0.361134 0.326079,-0.559732 0.234083,-0.419441 0.407921,-0.774185 0.52313,-1.06833 0.111697,-0.285181 0.166756,-0.509339 0.166756,-0.67648l0 -7.87402e-006c0,-0.418028 -0.170067,-0.797114 -0.444646,-1.0717 -0.274579,-0.274583 -0.653654,-0.444654 -1.07165,-0.444654l-7.87402e-006 0zm-1.22253 0.293807c0.313181,-0.313173 0.745618,-0.507146 1.22253,-0.507146l7.87402e-006 0c0.476886,0 0.909311,0.193976 1.22249,0.507157 0.313173,0.313181 0.50715,0.745618 0.50715,1.22253l0 7.87402e-006c0,0.193264 -0.0600157,0.443138 -0.181764,0.753984 -0.118228,0.301866 -0.29622,0.665181 -0.535626,1.09416 -0.117094,0.209862 -0.230386,0.402634 -0.329409,0.566402 -0.194492,0.321654 -0.343551,0.548035 -0.352862,0.562142l-0.000192913 -0.000125984 -0.241039 0.365409 -0.0887441 0.134528 -0.0887598 -0.134528 -0.241102 -0.365409 -0.000192913 0.000125984 -0.000318898 -0.000480315 0 -0.000417323c-0.0180197,-0.0274094 -0.348047,-0.529315 -0.681953,-1.12765 -0.239398,-0.42898 -0.417386,-0.792291 -0.535618,-1.09417 -0.121744,-0.31085 -0.18176,-0.560736 -0.18176,-0.754028 0,-0.476894 0.193976,-0.909323 0.507165,-1.2225zm1.22253 2.15952c-0.261772,0 -0.498764,-0.106106 -0.670311,-0.277654 -0.171551,-0.171547 -0.277654,-0.408543 -0.277654,-0.670311 0,-0.261764 0.106106,-0.498756 0.277657,-0.670303 0.171547,-0.171547 0.408539,-0.277654 0.670307,-0.277654l7.87402e-006 0c0.261736,0 0.498724,0.10611 0.67028,0.277654 0.171295,0.171291 0.277256,0.408264 0.27726,0.670295l0.000417323 0 0 7.87402e-006c0,0.26176 -0.106114,0.498748 -0.277661,0.670295 -0.171559,0.171559 -0.408559,0.277669 -0.670303,0.277669zm-0.519476 -0.428488c0.132929,0.132929 0.316591,0.21515 0.519476,0.21515 0.202858,0 0.386528,-0.0822244 0.519469,-0.215165 0.132929,-0.132929 0.215157,-0.316587 0.215157,-0.519461l0 -7.87402e-006 0.000417323 0c0,-0.202583 -0.0823976,-0.386268 -0.215591,-0.519461 -0.132933,-0.132929 -0.316591,-0.21515 -0.519445,-0.21515l-7.87402e-006 0c-0.202882,0 -0.386543,0.0822205 -0.519472,0.21515 -0.132929,0.132925 -0.215154,0.316591 -0.215154,0.519469 0,0.202882 0.0822205,0.386551 0.21515,0.519476z"/>
 </g>
</svg>
